<svg xmlns="http://www.w3.org/2000/svg" viewBox="0 0 374.10032 224.95952" width="374.10032pt" height="224.95952pt"><path d="M237.839233 24.771881 Q238.703232 24.879881 243.599228 24.879881 Q243.959229 24.879881 244.625229 24.861881 Q245.291229 24.84388 245.65123 24.84388 Q246.047226 24.84388 246.62323 24.825882 Q247.199234 24.80788 247.487228 24.789881 Q247.775238 24.771881 247.847229 24.771881 L248.135223 24.771881 L248.135223 26.427879 L247.631226 26.427879 L247.271225 26.427879 Q245.975235 26.427879 245.723236 26.85988 Q245.65123 27.00388 245.65123 30.71188 L245.65123 34.383881 Q245.435226 34.59988 245.327225 34.59988 Q245.183228 34.59988 244.67923 34.23988 Q243.887238 33.699879 243.275238 33.087879 L242.807236 32.65588 Q242.12323 33.80788 239.819229 34.81588 Q238.091232 35.39188 236.291229 35.39188 Q234.959229 35.39188 233.915237 35.139881 Q229.883224 34.347881 227.129227 31.323881 Q224.375229 28.299881 223.727234 23.83588 Q223.691238 23.511881 223.691238 22.28788 Q223.691238 21.09988 223.727234 20.73988 Q224.339233 16.347881 227.111237 13.305882 Q229.883224 10.263882 233.915237 9.435881 Q235.06723 9.219881 235.751236 9.219881 Q235.823227 9.219881 236.03923 9.237881 Q236.255234 9.255882 236.363235 9.255882 Q237.227234 9.255882 237.587234 9.327881 Q240.215225 9.795881 242.159225 11.70388 L242.627228 12.135881 L243.70723 10.731882 Q244.67923 9.399881 244.823227 9.255882 Q244.859222 9.255882 244.967224 9.237881 Q245.075226 9.219881 245.183228 9.219881 Q245.435226 9.219881 245.65123 9.435881 L245.65123 19.515881 L245.435226 19.73188 L244.211227 19.73188 Q243.995239 19.515881 243.959229 19.119881 Q243.635223 16.167881 242.231232 14.007881 Q240.827225 11.847881 238.811234 11.163881 Q238.127228 10.91188 237.01123 10.91188 Q233.267227 10.91188 230.747238 13.431881 Q227.903229 16.275881 227.903229 22.539881 Q227.903229 28.15588 230.603226 30.963881 Q233.195236 33.735882 237.191238 33.735882 Q238.88324 33.735882 240.161224 32.979881 Q241.43924 32.223881 241.799225 30.99988 Q241.907227 30.639881 241.907227 28.83988 L241.907227 26.96788 Q241.331238 26.57188 241.043228 26.535881 Q240.467224 26.427879 238.343231 26.427879 L237.407227 26.427879 L237.407227 24.771881 L237.839233 24.771881 L237.839233 24.771881 Z" fill="rgba(0,0,0,1)" fill-rule="nonzero" stroke="none"/><path d="M30.880001 92.319763 Q30.232 92.211761 26.740002 92.211761 Q23.536001 92.211761 23.104 92.319763 L22.852001 92.319763 L22.852001 90.663765 L23.392 90.663765 Q25.984001 90.555763 26.704 89.151764 Q26.740002 89.043762 28.612 83.481766 Q30.484001 77.919762 32.338001 72.393768 Q34.192001 66.867767 34.228001 66.831764 Q34.335999 66.543762 34.912003 66.543762 L35.236 66.543762 Q35.956001 66.579765 36.099998 66.795761 Q36.136002 66.831764 39.591999 77.091766 Q43.048 87.351761 43.912003 89.907761 Q44.02 90.123764 44.164001 90.267761 Q44.559998 90.627762 46.431999 90.663765 L47.512001 90.663765 L47.512001 92.319763 L47.188 92.319763 Q46.647999 92.211761 42.615997 92.211761 Q37.972 92.211761 37.431999 92.319763 L37.071999 92.319763 L37.071999 90.663765 L37.540001 90.663765 Q40.059998 90.663765 40.059998 90.015762 Q40.059998 89.943764 39.195999 87.351761 L38.332001 84.795761 L29.944 84.795761 L29.224001 86.919762 Q28.504002 89.043762 28.504002 89.259766 Q28.504002 89.439766 28.612 89.583763 Q28.828001 90.051765 29.530001 90.357765 Q30.232 90.663765 31.024 90.663765 L31.204 90.663765 L31.204 92.319763 L30.880001 92.319763 L30.880001 92.319763 Z M36.676003 79.827766 Q35.632 76.695763 34.84 74.391762 L34.119999 72.267761 L32.32 77.667763 L30.484001 83.10376 Q30.484001 83.139763 34.119999 83.139763 L37.792 83.139763 L36.676003 79.827766 L36.676003 79.827766 Z" fill="rgba(0,0,0,1)" fill-rule="nonzero" stroke="none"/><path d="M125.416 69.927765 Q125.056 69.567764 124.713997 69.495766 Q124.371994 69.423767 122.895996 69.387764 L121.708 69.387764 L121.708 67.731766 L128.944 67.731766 Q136.179993 67.767761 136.647995 67.839767 Q138.591995 68.163765 139.815994 68.883766 Q141.903992 70.071762 142.731995 71.907761 Q143.164001 72.879761 143.164001 73.887764 Q143.164001 75.723763 141.687988 77.253761 Q140.21199 78.783768 137.835999 79.359764 L137.475998 79.467766 Q139.996002 79.755768 141.813995 81.15976 Q143.631989 82.563766 144.099991 84.723763 Q144.136002 84.939766 144.136002 85.587761 Q144.136002 86.415764 144.063995 86.703766 Q143.595993 88.827766 141.832001 90.33976 Q140.067993 91.851761 137.584 92.211761 Q137.115997 92.28376 129.412003 92.319763 L121.708 92.319763 L121.708 90.663765 L122.895996 90.663765 Q124.371994 90.627762 124.713997 90.555763 Q125.056 90.483765 125.416 90.123764 L125.416 69.927765 L125.416 69.927765 Z M139.095993 73.851761 Q139.095993 72.15976 138.141998 70.93576 Q137.187988 69.711761 135.675995 69.423767 Q135.639999 69.423767 135.190002 69.423767 Q134.73999 69.423767 134.037994 69.405762 Q133.335999 69.387764 132.688004 69.387764 Q132.039993 69.387764 131.337997 69.405762 Q130.636002 69.423767 130.167999 69.423767 Q129.699997 69.423767 129.627991 69.423767 Q129.160004 69.459763 129.052002 69.711761 Q128.944 69.855766 128.944 74.355766 L128.944 78.855766 L131.931992 78.855766 L134.955994 78.819763 L135.315994 78.747765 Q135.423996 78.711761 135.675995 78.639763 L135.891998 78.567764 Q137.29599 78.063766 138.195999 76.821762 Q139.095993 75.579765 139.095993 73.851761 L139.095993 73.851761 Z M140.031998 85.551765 Q140.031998 83.499763 138.951996 82.059761 Q137.871994 80.619766 136.179993 80.223763 L132.543991 80.187767 L128.944 80.187767 L128.944 85.119766 Q128.944 90.123764 128.979996 90.195763 Q129.052002 90.33976 129.123993 90.447762 Q129.339996 90.627762 132.723999 90.627762 L134.487991 90.627762 Q136 90.627762 136.647995 90.411766 Q138.195999 89.907761 139.113998 88.57576 Q140.031998 87.243767 140.031998 85.551765 L140.031998 85.551765 Z" fill="rgba(0,0,0,1)" fill-rule="nonzero" stroke="none"/><path d="M241.960236 83.067764 L242.176239 83.283768 L242.176239 83.823761 Q241.996246 87.063766 240.052246 89.54776 Q238.108246 92.031761 235.048248 92.823761 Q234.004242 93.07576 232.708237 93.07576 Q231.376236 93.07576 230.440247 92.859764 Q226.408234 92.067764 223.654236 89.043762 Q220.900238 86.01976 220.252243 81.555763 Q220.216248 81.231766 220.216248 80.007767 Q220.216248 78.819763 220.252243 78.459763 Q220.864243 74.067764 223.636246 71.025764 Q226.408234 67.983765 230.440247 67.155762 Q231.592239 66.939766 232.276245 66.939766 Q232.348236 66.939766 232.56424 66.957764 Q232.780243 66.975769 232.888245 66.975769 Q233.752243 66.975769 234.112244 67.04776 Q236.740234 67.515762 238.684235 69.423767 L239.152237 69.855766 L240.232239 68.451767 Q241.204239 67.119766 241.348236 66.975769 Q241.384247 66.975769 241.492249 66.957764 Q241.600235 66.939766 241.708237 66.939766 Q241.960236 66.939766 242.176239 67.155762 L242.176239 77.235764 L241.960236 77.451767 L240.736237 77.451767 Q240.520233 77.235764 240.484238 76.839767 Q240.160248 73.887764 238.756241 71.727768 Q237.352234 69.567764 235.336243 68.883766 Q234.652237 68.63176 233.53624 68.63176 Q229.792236 68.63176 227.272247 71.151764 Q224.428238 73.995766 224.428238 80.007767 Q224.428238 84.363762 225.796234 86.883766 Q226.912247 89.007767 228.982239 90.231766 Q231.052246 91.455765 233.608246 91.455765 Q236.236237 91.455765 238.180237 89.565765 Q240.124237 87.675766 240.556244 85.119766 Q240.736237 84.219765 240.736237 83.535767 Q240.736237 83.283768 240.95224 83.067764 L241.960236 83.067764 L241.960236 83.067764 Z" fill="rgba(0,0,0,1)" fill-rule="nonzero" stroke="none"/><path d="M123.880058 127.647644 Q123.520058 127.287643 123.178055 127.215645 Q122.83606 127.143646 121.360062 127.107643 L120.172058 127.107643 L120.172058 125.451645 L127.408058 125.451645 Q133.564056 125.48764 134.284058 125.505646 Q135.004059 125.523643 135.796051 125.703644 Q139.324051 126.459641 141.718063 129.447647 Q144.112061 132.435638 144.616058 136.395645 Q144.688049 137.115646 144.688049 137.943649 Q144.688049 138.771637 144.616058 139.491638 Q144.112061 143.48764 141.556061 146.385635 Q139.000061 149.283646 135.112061 149.931641 Q134.644058 150.003647 127.408058 150.039642 L120.172058 150.039642 L120.172058 148.383636 L121.360062 148.383636 Q122.83606 148.347641 123.178055 148.275635 Q123.520058 148.203644 123.880058 147.843643 L123.880058 127.647644 L123.880058 127.647644 Z M133.420059 127.143646 Q133.348053 127.143646 132.934052 127.143646 Q132.52005 127.143646 131.926056 127.125641 Q131.332062 127.107643 130.792053 127.107643 Q130.25206 127.107643 129.658051 127.125641 Q129.064056 127.143646 128.66806 127.143646 Q128.272064 127.143646 128.200058 127.143646 Q127.732056 127.179642 127.624054 127.431641 Q127.51606 127.575645 127.51606 137.65564 Q127.51606 147.807648 127.552055 147.915649 Q127.624054 148.239639 127.984055 148.311646 Q128.272064 148.383636 131.404053 148.383636 Q133.744064 148.383636 135.094055 148.023636 Q136.444061 147.663635 137.740051 146.619644 Q140.548065 144.279648 140.548065 137.871643 Q140.548065 134.235641 139.756058 131.985641 Q138.96405 129.735641 136.948059 128.367645 Q135.364059 127.323639 133.420059 127.143646 L133.420059 127.143646 Z" fill="rgba(0,0,0,1)" fill-rule="nonzero" stroke="none"/><path d="M332.508148 127.755646 Q332.148132 127.395645 331.806152 127.323639 Q331.464142 127.251648 329.988159 127.215645 L328.80014 127.215645 L328.80014 125.559647 L349.392151 125.559647 L349.392151 125.703644 L349.896149 129.879639 L350.400146 134.055649 L350.400146 134.199646 L348.960144 134.199646 L348.960144 134.055649 Q348.924133 133.947647 348.852142 133.299637 Q348.420135 129.915649 347.214142 128.673645 Q346.008148 127.431641 343.056152 127.251648 Q342.696136 127.215645 340.608154 127.215645 Q337.008148 127.215645 336.720154 127.287643 Q336.396149 127.323639 336.288147 127.68364 Q336.252136 127.755646 336.252136 132.147644 L336.252136 136.503647 L338.196136 136.503647 Q340.536133 136.467636 341.076141 136.287643 Q342.084137 135.999649 342.444153 135.261642 Q342.804138 134.523636 342.87616 133.011642 L342.87616 132.291641 L344.316132 132.291641 L344.316132 142.371643 L342.87616 142.371643 L342.87616 141.651642 Q342.804138 140.139648 342.444153 139.401642 Q342.084137 138.663635 341.076141 138.375641 Q340.536133 138.195648 338.196136 138.159637 L336.252136 138.159637 L336.252136 142.983643 Q336.252136 147.843643 336.288147 147.915649 Q336.324158 148.059647 336.432159 148.167648 Q336.648132 148.347641 338.304138 148.347641 L340.140137 148.347641 Q343.380157 148.347641 343.884155 148.311646 Q345.972137 148.059647 347.142151 147.249649 Q348.312134 146.439636 348.924133 144.783646 Q349.428162 143.451645 349.752136 141.291641 Q349.896149 140.391647 349.932159 140.319641 L349.932159 140.211639 L351.372131 140.211639 L351.372131 140.319641 Q351.336151 140.427643 350.634155 145.125641 Q349.932159 149.823639 349.860138 149.931641 L349.860138 150.039642 L328.80014 150.039642 L328.80014 148.383636 L329.988159 148.383636 Q331.464142 148.347641 331.806152 148.275635 Q332.148132 148.203644 332.508148 147.843643 L332.508148 127.755646 L332.508148 127.755646 Z" fill="rgba(0,0,0,1)" fill-rule="nonzero" stroke="none"/><path d="M228.658157 185.475525 Q228.298157 185.115524 227.956161 185.043518 Q227.614151 184.971527 226.138153 184.935516 L224.95015 184.935516 L224.95015 183.279526 L245.002151 183.279526 L245.002151 183.423523 L245.506149 187.599518 L246.010162 191.775528 L246.010162 191.919525 L244.57016 191.919525 L244.57016 191.775528 Q244.426147 190.659515 244.318161 190.047516 Q244.210159 189.435516 243.994156 188.607529 Q243.778152 187.779526 243.508148 187.329529 Q243.238159 186.879517 242.824158 186.393524 Q242.410156 185.907516 241.816162 185.619522 Q241.222153 185.331528 240.430161 185.15152 Q239.494156 184.971527 236.074158 184.971527 L234.346161 184.971527 Q232.798157 184.971527 232.582153 185.15152 Q232.474152 185.259521 232.438156 185.403519 Q232.402161 185.475525 232.402161 190.119522 L232.402161 194.691528 L234.274155 194.691528 Q235.786148 194.655518 236.470154 194.583527 Q237.15416 194.51152 237.748154 194.15152 Q238.342163 193.791519 238.540161 193.125519 Q238.738159 192.459518 238.81015 191.235519 L238.81015 190.479523 L240.250153 190.479523 L240.250153 200.559525 L238.81015 200.559525 L238.81015 199.803528 Q238.738159 198.579529 238.540161 197.913528 Q238.342163 197.247528 237.748154 196.887527 Q237.15416 196.527527 236.470154 196.455521 Q235.786148 196.383514 234.274155 196.347519 L232.402161 196.347519 L232.402161 200.955521 L232.438156 205.563522 Q232.726151 205.851517 233.01416 205.941528 Q233.302155 206.031525 234.31015 206.06752 Q234.706161 206.103516 236.038162 206.103516 L237.010162 206.103516 L237.010162 207.759521 L236.578156 207.759521 Q235.642151 207.65152 230.602158 207.65152 Q226.030151 207.65152 225.346161 207.759521 L224.95015 207.759521 L224.95015 206.103516 L226.138153 206.103516 Q227.614151 206.06752 227.956161 205.995514 Q228.298157 205.923523 228.658157 205.563522 L228.658157 185.475525 L228.658157 185.475525 Z" fill="rgba(0,0,0,1)" fill-rule="nonzero" stroke="none"/><rect x="10" y="111.03976" width="245.90016" height="2.88" fill="rgba(0,0,0,1)"/><line x1="107.50006" y1="170.19964" x2="364.10032" y2="170.19964" stroke="rgba(0,0,0,1)" stroke-width="2.88" stroke-dasharray="8.64 8.64"/><rect x="215.64019" y="53.31988" width="40.32" height="2.88" fill="rgba(0,0,0,1)"/></svg>